# xmcd CD database file
#
# Track frame offsets:
#       150
#       11785
#       27617
#       42220
#       58330
#       70750
#       87592
#       104220
#       116825
#       128862
#
# Disc length: 1877 seconds
#
# Revision: 2
# Processed by: cddbd v1.5.2PL0 Copyright (c) Steve Scherf et al.
# Submitted via: jack 3.1.1
#
DISCID=9907530a
DTITLE=Various Artist - NatWest Live! Country Greats
DYEAR=1995
DGENRE=Country
TTITLE0=Chris LeDoux and Garth Brooks - Whatcha' Gonna Do With A Cowboy
TTITLE1=Tanya Tucker - I'm Down to My Last Teardrop
TTITLE2=Eddie Rabbit - Drivin' My Life Away
TTITLE3=Willie Nelson - Always On My Mind
TTITLE4=Patsy Cline - Crazy
TTITLE5=Alabama - Touch Me When We're Dancing
TTITLE6=Randy Travis - I Told You So
TTITLE7=Dolly Parton - 9 to 5
TTITLE8=Gatlin Brothers - All the Gold In California
TTITLE9=Tammy Wynette - Stand By Your Man
EXTD=
EXTT0=
EXTT1=
EXTT2=
EXTT3=
EXTT4=
EXTT5=
EXTT6=
EXTT7=
EXTT8=
EXTT9=
PLAYORDER=
